<svg width="154" height="47" viewBox="0 0 154 47" fill="none" xmlns="http://www.w3.org/2000/svg">
<path d="M34.0048 36.2974C34.172 36.6296 33.7539 36.9458 33.4798 36.6946L24.9055 28.8339C24.691 28.6373 24.8123 28.2796 25.102 28.2539L29.5214 27.862C29.658 27.8499 29.7881 27.9224 29.8498 28.0448L34.0048 36.2974Z" fill="url(#paint0_linear_56_77)"/>
<path d="M24.58 28.8247L30.6951 38.0052C30.896 38.3068 31.3661 38.1185 31.3031 37.7616L29.4717 27.3733C29.4619 27.3173 29.4664 27.2598 29.485 27.206L32.0542 19.7655C32.1296 19.547 32.3985 19.469 32.5791 19.6131L39.8941 25.4479C40.1795 25.6755 40.5713 25.3466 40.3965 25.0261L35.0473 15.2161C35.0247 15.1748 34.9937 15.1386 34.9562 15.1101L26.2709 8.49683C26.2126 8.45246 26.1414 8.42844 26.0681 8.42844L20.3098 8.42844C20.0429 8.42843 19.8834 8.72554 20.0309 8.94797L24.8931 16.281C24.9316 16.3392 24.9511 16.4079 24.9486 16.4776L24.5241 28.6276C24.5217 28.6975 24.5412 28.7665 24.58 28.8247Z" fill="url(#paint1_linear_56_77)"/>
<path d="M46.2042 36.2974C46.037 36.6296 46.4551 36.9458 46.7292 36.6946L55.3035 28.8339C55.518 28.6373 55.3967 28.2796 55.107 28.2539L50.6876 27.862C50.551 27.8499 50.4208 27.9224 50.3592 28.0448L46.2042 36.2974Z" fill="url(#paint2_linear_56_77)"/>
<path d="M55.6293 28.8247L49.5142 38.0052C49.3134 38.3068 48.8433 38.1185 48.9062 37.7616L50.7376 27.3733C50.7475 27.3173 50.743 27.2598 50.7244 27.206L48.1552 19.7655C48.0798 19.547 47.8109 19.469 47.6302 19.6131L40.3153 25.4479C40.0299 25.6755 39.6381 25.3466 39.8129 25.0261L45.1621 15.2161C45.1846 15.1748 45.2157 15.1386 45.2531 15.1101L53.9385 8.49683C53.9968 8.45246 54.068 8.42844 54.1412 8.42844L59.8996 8.42844C60.1665 8.42843 60.3259 8.72554 60.1785 8.94797L55.3163 16.281C55.2777 16.3392 55.2583 16.4079 55.2607 16.4776L55.6852 28.6276C55.6877 28.6975 55.6681 28.7665 55.6293 28.8247Z" fill="url(#paint3_linear_56_77)"/>
<path d="M80.7932 16.5337L76.6003 30.3616V30.4118H74.3155L70.1226 16.4079L69.7711 30.4118H68.2646L68.6915 15H72.0308L75.8471 27.8725L79.7387 15H83.2035L83.6555 30.4118H81.1196L80.7932 16.5337Z" fill="url(#paint4_linear_56_77)"/>
<path d="M98.4653 25.3081C98.4653 26.5987 98.1891 27.6546 97.6367 28.4759C97.1011 29.2805 96.4148 29.8587 95.5779 30.2107C94.7577 30.5459 93.8874 30.7135 92.9668 30.7135C91.3097 30.7135 89.9288 30.3029 88.824 29.4816C87.7361 28.6435 87.1921 27.2524 87.1921 25.3081V15H89.753V25.3081C89.753 26.7495 90.0543 27.8055 90.6569 28.4759C91.2762 29.1296 92.1047 29.4565 93.1425 29.4565C94.2138 29.4565 95.1176 29.1212 95.8541 28.4508C96.6073 27.7636 96.9839 26.716 96.9839 25.3081V15H98.4653V25.3081Z" fill="url(#paint5_linear_56_77)"/>
<path d="M110.188 29.1296V30.4118H102.254V15H104.815V29.1296H110.188Z" fill="url(#paint6_linear_56_77)"/>
<path d="M116.523 25.0818L116.498 25.107V30.4118H113.937V25.0818L109.192 15H111.778L115.72 23.6739L119.762 15H121.268L116.523 25.0818Z" fill="url(#paint7_linear_56_77)"/>
<path d="M129.298 25.8109H123.171L121.715 30.4118H120.259L125.23 15H128.293L133.265 30.4118H130.779L129.298 25.8109ZM128.896 24.579L126.235 16.2068L123.573 24.579H128.896Z" fill="url(#paint8_linear_56_77)"/>
<defs>
<linearGradient id="paint0_linear_56_77" x1="27.8169" y1="28.2249" x2="33.8066" y2="36.7243" gradientUnits="userSpaceOnUse">
<stop stop-color="white"/>
<stop offset="1" stop-color="#D9B7FE"/>
</linearGradient>
<linearGradient id="paint1_linear_56_77" x1="24.8799" y1="9.66613" x2="26.3959" y2="38.3796" gradientUnits="userSpaceOnUse">
<stop offset="0.22" stop-color="#452F8A"/>
<stop offset="1" stop-color="#9967CE"/>
</linearGradient>
<linearGradient id="paint2_linear_56_77" x1="52.3921" y1="28.2249" x2="46.4024" y2="36.7243" gradientUnits="userSpaceOnUse">
<stop stop-color="white"/>
<stop offset="1" stop-color="#D9B7FE"/>
</linearGradient>
<linearGradient id="paint3_linear_56_77" x1="57.1969" y1="8.41531" x2="44.9025" y2="36.1028" gradientUnits="userSpaceOnUse">
<stop offset="0.22" stop-color="#452F8A"/>
<stop offset="1" stop-color="#9967CE"/>
</linearGradient>
<linearGradient id="paint4_linear_56_77" x1="100.744" y1="15" x2="100.744" y2="30.7442" gradientUnits="userSpaceOnUse">
<stop stop-color="#452F8A"/>
<stop offset="1" stop-color="#9967CE"/>
</linearGradient>
<linearGradient id="paint5_linear_56_77" x1="100.744" y1="15" x2="100.744" y2="30.7442" gradientUnits="userSpaceOnUse">
<stop stop-color="#452F8A"/>
<stop offset="1" stop-color="#9967CE"/>
</linearGradient>
<linearGradient id="paint6_linear_56_77" x1="100.744" y1="15" x2="100.744" y2="30.7442" gradientUnits="userSpaceOnUse">
<stop stop-color="#452F8A"/>
<stop offset="1" stop-color="#9967CE"/>
</linearGradient>
<linearGradient id="paint7_linear_56_77" x1="100.744" y1="15" x2="100.744" y2="30.7442" gradientUnits="userSpaceOnUse">
<stop stop-color="#452F8A"/>
<stop offset="1" stop-color="#9967CE"/>
</linearGradient>
<linearGradient id="paint8_linear_56_77" x1="100.744" y1="15" x2="100.744" y2="30.7442" gradientUnits="userSpaceOnUse">
<stop stop-color="#452F8A"/>
<stop offset="1" stop-color="#9967CE"/>
</linearGradient>
</defs>
</svg>
