<svg width="1000" height="1000" viewBox="0 0 1000 1000" fill="none" xmlns="http://www.w3.org/2000/svg">
<path d="M408.961 739.622C411.459 744.585 405.212 749.311 401.116 745.556L272.996 628.1C269.792 625.163 271.604 619.818 275.933 619.434L341.969 613.578C344.01 613.397 345.955 614.48 346.876 616.31L408.961 739.622Z" fill="url(#paint0_linear_56_41)"/>
<path d="M268.132 627.963L359.505 765.141C362.507 769.647 369.531 766.833 368.591 761.501L341.225 606.276C341.077 605.439 341.145 604.579 341.423 603.776L379.813 492.597C380.94 489.333 384.957 488.167 387.657 490.32L496.958 577.505C501.223 580.907 507.078 575.992 504.466 571.202L424.537 424.619C424.2 424.001 423.736 423.461 423.176 423.035L293.397 324.218C292.526 323.555 291.462 323.196 290.368 323.196L204.325 323.196C200.337 323.196 197.954 327.636 200.158 330.959L272.81 440.532C273.386 441.401 273.676 442.428 273.639 443.469L267.297 625.017C267.26 626.062 267.552 627.093 268.132 627.963Z" fill="url(#paint1_linear_56_41)"/>
<path d="M591.249 739.622C588.751 744.585 594.998 749.311 599.094 745.556L727.214 628.1C730.418 625.163 728.606 619.818 724.276 619.434L658.241 613.578C656.2 613.397 654.255 614.48 653.334 616.31L591.249 739.622Z" fill="url(#paint2_linear_56_41)"/>
<path d="M732.078 627.963L640.705 765.141C637.703 769.647 630.679 766.833 631.619 761.501L658.985 606.276C659.133 605.439 659.064 604.579 658.787 603.776L620.397 492.597C619.27 489.333 615.253 488.167 612.553 490.32L503.252 577.505C498.987 580.907 493.132 575.992 495.744 571.202L575.673 424.619C576.01 424.001 576.474 423.461 577.034 423.035L706.813 324.218C707.684 323.555 708.748 323.196 709.842 323.196L795.885 323.196C799.873 323.196 802.256 327.636 800.052 330.959L727.4 440.532C726.824 441.401 726.534 442.428 726.571 443.469L732.913 625.017C732.95 626.062 732.658 627.093 732.078 627.963Z" fill="url(#paint3_linear_56_41)"/>
<path d="M318.949 139.93L280.813 265.524V265.981H260.033L221.898 138.788L218.701 265.981H205L208.882 126H239.253L273.963 242.917L309.358 126H340.871L344.981 265.981H321.917L318.949 139.93Z" fill="url(#paint4_linear_56_41)"/>
<path d="M479.678 219.625C479.678 231.347 477.166 240.938 472.142 248.398C467.27 255.705 461.029 260.957 453.417 264.154C445.957 267.199 438.041 268.721 429.668 268.721C414.597 268.721 402.037 264.991 391.99 257.532C382.094 249.92 377.147 237.284 377.147 219.625V126H400.439V219.625C400.439 232.717 403.179 242.308 408.66 248.398C414.292 254.335 421.828 257.303 431.267 257.303C441.01 257.303 449.23 254.259 455.929 248.169C462.779 241.928 466.205 232.413 466.205 219.625V126H479.678V219.625Z" fill="url(#paint5_linear_56_41)"/>
<path d="M586.294 254.335V265.981H514.134V126H537.426V254.335H586.294Z" fill="url(#paint6_linear_56_41)"/>
<path d="M643.914 217.57L643.686 217.798V265.981H620.393V217.57L577.235 126H600.755L636.607 204.782L673.372 126H687.073L643.914 217.57Z" fill="url(#paint7_linear_56_41)"/>
<path d="M760.101 224.192H704.383L691.139 265.981H677.894L723.108 126H750.967L796.181 265.981H773.574L760.101 224.192ZM756.448 213.003L732.242 136.961L708.037 213.003H756.448Z" fill="url(#paint8_linear_56_41)"/>
<path d="M251.712 849.558V851.598H237.432V827.078H250.992V829.118H241.512V838.038H250.152V840.158H241.512V849.558H251.712ZM266.101 831.918C270.208 831.918 272.261 833.958 272.261 838.038V851.598H268.221V838.358C268.221 836.918 267.968 835.864 267.461 835.198C266.955 834.504 266.155 834.158 265.061 834.158C263.435 834.158 261.835 834.771 260.261 835.998V851.598H256.221V832.398H257.981L259.581 834.398C260.541 833.651 261.595 833.051 262.741 832.598C263.915 832.144 265.035 831.918 266.101 831.918ZM288.289 831.918C290.396 831.918 291.942 832.451 292.929 833.518C293.942 834.584 294.449 836.091 294.449 838.038V851.598H290.409V838.358C290.409 836.944 290.156 835.891 289.649 835.198C289.142 834.504 288.342 834.158 287.249 834.158C285.596 834.158 283.996 834.771 282.449 835.998V851.598H278.409V826.238L282.449 825.718V833.918C283.302 833.304 284.236 832.824 285.249 832.478C286.262 832.104 287.276 831.918 288.289 831.918ZM304.476 852.078C302.85 852.078 301.556 851.638 300.596 850.758C299.663 849.851 299.196 848.624 299.196 847.078C299.196 845.424 299.783 844.131 300.956 843.198C302.156 842.238 303.97 841.544 306.396 841.118L310.836 840.398V838.438C310.836 835.424 309.69 833.918 307.396 833.918C306.036 833.918 305.05 834.304 304.436 835.078C303.823 835.851 303.476 837.038 303.396 838.638L300.036 838.278C300.196 836.171 300.836 834.584 301.956 833.518C303.076 832.451 304.916 831.918 307.476 831.918C309.956 831.918 311.81 832.478 313.036 833.598C314.263 834.691 314.876 836.358 314.876 838.598V851.598H312.316L311.076 848.798C310.25 849.864 309.263 850.678 308.116 851.238C306.97 851.798 305.756 852.078 304.476 852.078ZM305.916 849.958C306.823 849.958 307.716 849.691 308.596 849.158C309.503 848.624 310.25 847.998 310.836 847.278V842.038L306.916 842.798C305.583 843.091 304.57 843.558 303.876 844.198C303.21 844.838 302.876 845.704 302.876 846.798C302.876 847.758 303.143 848.531 303.676 849.118C304.236 849.678 304.983 849.958 305.916 849.958ZM330.906 831.918C335.013 831.918 337.066 833.958 337.066 838.038V851.598H333.026V838.358C333.026 836.918 332.773 835.864 332.266 835.198C331.759 834.504 330.959 834.158 329.866 834.158C328.239 834.158 326.639 834.771 325.066 835.998V851.598H321.026V832.398H322.786L324.386 834.398C325.346 833.651 326.399 833.051 327.546 832.598C328.719 832.144 329.839 831.918 330.906 831.918ZM345.814 841.998C345.814 844.664 346.107 846.678 346.694 848.038C347.307 849.398 348.44 850.078 350.094 850.078C351.454 850.078 352.427 849.664 353.014 848.838C353.627 848.011 353.96 846.758 354.014 845.078L357.454 845.198C357.294 847.438 356.654 849.144 355.534 850.318C354.414 851.491 352.574 852.078 350.014 852.078C346.867 852.078 344.707 851.171 343.534 849.358C342.36 847.518 341.774 845.064 341.774 841.998C341.774 838.904 342.36 836.451 343.534 834.638C344.707 832.824 346.867 831.918 350.014 831.918C352.574 831.918 354.4 832.478 355.494 833.598C356.614 834.691 357.254 836.304 357.414 838.438L354.014 838.878C353.96 837.198 353.627 835.958 353.014 835.158C352.427 834.331 351.454 833.918 350.094 833.918C348.44 833.918 347.307 834.598 346.694 835.958C346.107 837.291 345.814 839.304 345.814 841.998ZM365.189 842.238V842.318C365.189 845.144 365.522 847.144 366.189 848.318C366.882 849.491 368.055 850.078 369.709 850.078C372.429 850.078 373.855 848.678 373.989 845.878L377.309 846.038C377.122 847.904 376.442 849.384 375.269 850.478C374.095 851.544 372.202 852.078 369.589 852.078C366.575 852.078 364.415 851.251 363.109 849.598C361.802 847.918 361.149 845.384 361.149 841.998C361.149 838.958 361.762 836.518 362.989 834.678C364.242 832.838 366.429 831.918 369.549 831.918C372.562 831.918 374.655 832.838 375.829 834.678C377.002 836.491 377.589 838.878 377.589 841.838V842.238H365.189ZM369.469 833.918C368.055 833.918 367.029 834.438 366.389 835.478C365.749 836.518 365.362 838.104 365.229 840.238H373.669C373.589 838.158 373.229 836.584 372.589 835.518C371.975 834.451 370.935 833.918 369.469 833.918ZM401.081 850.918C399.667 851.691 398.307 852.078 397.001 852.078C395.667 852.078 394.667 851.838 394.001 851.358C393.361 850.851 392.961 850.251 392.801 849.558C392.641 848.864 392.561 848.011 392.561 846.998V834.438H389.441V832.398H392.561V829.278L396.641 827.758V832.398H400.721V834.438H396.641V847.478C396.641 848.358 396.747 848.971 396.961 849.318C397.201 849.638 397.587 849.798 398.121 849.798C398.867 849.798 399.681 849.558 400.561 849.078L401.081 850.918ZM414.07 831.918C416.177 831.918 417.723 832.451 418.71 833.518C419.723 834.584 420.23 836.091 420.23 838.038V851.598H416.19V838.358C416.19 836.944 415.937 835.891 415.43 835.198C414.923 834.504 414.123 834.158 413.03 834.158C411.377 834.158 409.777 834.771 408.23 835.998V851.598H404.19V826.238L408.23 825.718V833.918C409.083 833.304 410.017 832.824 411.03 832.478C412.043 832.104 413.057 831.918 414.07 831.918ZM428.978 842.238V842.318C428.978 845.144 429.311 847.144 429.978 848.318C430.671 849.491 431.844 850.078 433.498 850.078C436.218 850.078 437.644 848.678 437.778 845.878L441.098 846.038C440.911 847.904 440.231 849.384 439.058 850.478C437.884 851.544 435.991 852.078 433.378 852.078C430.364 852.078 428.204 851.251 426.898 849.598C425.591 847.918 424.938 845.384 424.938 841.998C424.938 838.958 425.551 836.518 426.778 834.678C428.031 832.838 430.218 831.918 433.338 831.918C436.351 831.918 438.444 832.838 439.618 834.678C440.791 836.491 441.378 838.878 441.378 841.838V842.238H428.978ZM433.258 833.918C431.844 833.918 430.818 834.438 430.178 835.478C429.538 836.518 429.151 838.104 429.018 840.238H437.458C437.378 838.158 437.018 836.584 436.378 835.518C435.764 834.451 434.724 833.918 433.258 833.918ZM470.67 832.398L463.99 851.598H459.55L452.99 832.398H457.03L462.63 849.558L468.35 832.398H470.67ZM478.187 852.078C476.561 852.078 475.267 851.638 474.307 850.758C473.374 849.851 472.907 848.624 472.907 847.078C472.907 845.424 473.494 844.131 474.667 843.198C475.867 842.238 477.681 841.544 480.107 841.118L484.547 840.398V838.438C484.547 835.424 483.401 833.918 481.107 833.918C479.747 833.918 478.761 834.304 478.147 835.078C477.534 835.851 477.187 837.038 477.107 838.638L473.747 838.278C473.907 836.171 474.547 834.584 475.667 833.518C476.787 832.451 478.627 831.918 481.187 831.918C483.667 831.918 485.521 832.478 486.747 833.598C487.974 834.691 488.587 836.358 488.587 838.598V851.598H486.027L484.787 848.798C483.961 849.864 482.974 850.678 481.827 851.238C480.681 851.798 479.467 852.078 478.187 852.078ZM479.627 849.958C480.534 849.958 481.427 849.691 482.307 849.158C483.214 848.624 483.961 847.998 484.547 847.278V842.038L480.627 842.798C479.294 843.091 478.281 843.558 477.587 844.198C476.921 844.838 476.587 845.704 476.587 846.798C476.587 847.758 476.854 848.531 477.387 849.118C477.947 849.678 478.694 849.958 479.627 849.958ZM498.777 851.598H494.737V826.238L498.777 825.718V851.598ZM521.043 832.398V851.598H518.403L517.283 849.198C515.496 851.118 513.403 852.078 511.003 852.078C508.923 852.078 507.39 851.544 506.403 850.478C505.416 849.384 504.923 847.851 504.923 845.878V832.398H508.963V845.478C508.963 848.464 510.136 849.958 512.483 849.958C514.216 849.958 515.723 849.118 517.003 847.438V832.398H521.043ZM530.15 842.238V842.318C530.15 845.144 530.483 847.144 531.15 848.318C531.843 849.491 533.016 850.078 534.67 850.078C537.39 850.078 538.816 848.678 538.95 845.878L542.27 846.038C542.083 847.904 541.403 849.384 540.23 850.478C539.056 851.544 537.163 852.078 534.55 852.078C531.536 852.078 529.376 851.251 528.07 849.598C526.763 847.918 526.11 845.384 526.11 841.998C526.11 838.958 526.723 836.518 527.95 834.678C529.203 832.838 531.39 831.918 534.51 831.918C537.523 831.918 539.616 832.838 540.79 834.678C541.963 836.491 542.55 838.878 542.55 841.838V842.238H530.15ZM534.43 833.918C533.016 833.918 531.99 834.438 531.35 835.478C530.71 836.518 530.323 838.104 530.19 840.238H538.63C538.55 838.158 538.19 836.584 537.55 835.518C536.936 834.451 535.896 833.918 534.43 833.918ZM564.242 852.078C561.015 852.078 558.762 851.158 557.482 849.318C556.228 847.451 555.602 845.011 555.602 841.998C555.602 838.958 556.228 836.518 557.482 834.678C558.762 832.838 561.015 831.918 564.242 831.918C567.442 831.918 569.682 832.851 570.962 834.718C572.242 836.558 572.882 838.984 572.882 841.998C572.882 848.718 570.002 852.078 564.242 852.078ZM564.242 850.078C566.002 850.078 567.202 849.371 567.842 847.958C568.508 846.544 568.842 844.558 568.842 841.998C568.842 839.411 568.522 837.424 567.882 836.038C567.242 834.624 566.028 833.918 564.242 833.918C562.455 833.918 561.242 834.611 560.602 835.998C559.962 837.384 559.642 839.384 559.642 841.998C559.642 844.584 559.962 846.584 560.602 847.998C561.242 849.384 562.455 850.078 564.242 850.078ZM584.539 825.198C585.393 825.198 586.206 825.331 586.979 825.598C587.753 825.838 588.539 826.198 589.339 826.678L587.979 829.598C587.579 828.984 587.099 828.491 586.539 828.118C585.979 827.744 585.406 827.558 584.819 827.558C584.073 827.558 583.486 827.811 583.059 828.318C582.659 828.798 582.459 829.451 582.459 830.278V832.398H586.499V834.438H582.459V851.598H578.419V834.438H575.299V832.398H578.419V831.358C578.419 829.331 578.939 827.798 579.979 826.758C581.046 825.718 582.566 825.198 584.539 825.198ZM613.834 832.398L604.034 859.718L600.754 859.238L604.474 852.358L596.154 832.398H600.194L606.314 847.558L611.514 832.398H613.834ZM624.632 852.078C621.406 852.078 619.152 851.158 617.872 849.318C616.619 847.451 615.992 845.011 615.992 841.998C615.992 838.958 616.619 836.518 617.872 834.678C619.152 832.838 621.406 831.918 624.632 831.918C627.832 831.918 630.072 832.851 631.352 834.718C632.632 836.558 633.272 838.984 633.272 841.998C633.272 848.718 630.392 852.078 624.632 852.078ZM624.632 850.078C626.392 850.078 627.592 849.371 628.232 847.958C628.899 846.544 629.232 844.558 629.232 841.998C629.232 839.411 628.912 837.424 628.272 836.038C627.632 834.624 626.419 833.918 624.632 833.918C622.846 833.918 621.632 834.611 620.992 835.998C620.352 837.384 620.032 839.384 620.032 841.998C620.032 844.584 620.352 846.584 620.992 847.998C621.632 849.384 622.846 850.078 624.632 850.078ZM654.09 832.398V851.598H651.45L650.33 849.198C648.543 851.118 646.45 852.078 644.05 852.078C641.97 852.078 640.437 851.544 639.45 850.478C638.463 849.384 637.97 847.851 637.97 845.878V832.398H642.01V845.478C642.01 848.464 643.183 849.958 645.53 849.958C647.263 849.958 648.77 849.118 650.05 847.438V832.398H654.09ZM664.276 836.038C664.89 834.891 665.743 833.971 666.836 833.278C667.956 832.584 669.29 832.238 670.836 832.238V835.198C666.73 835.198 664.676 836.798 664.676 839.998H664.636V851.598H660.596V832.398H662.356L664.276 836.038ZM705.564 832.398L700.564 851.598H696.124L693.044 837.958L689.604 851.598H685.124L680.884 832.398H684.964L688.244 848.478L692.124 832.398H694.484L694.444 832.478L694.564 832.398H695.884L699.244 848.558L703.164 832.398H705.564ZM716.429 852.078C713.203 852.078 710.949 851.158 709.669 849.318C708.416 847.451 707.789 845.011 707.789 841.998C707.789 838.958 708.416 836.518 709.669 834.678C710.949 832.838 713.203 831.918 716.429 831.918C719.629 831.918 721.869 832.851 723.149 834.718C724.429 836.558 725.069 838.984 725.069 841.998C725.069 848.718 722.189 852.078 716.429 852.078ZM716.429 850.078C718.189 850.078 719.389 849.371 720.029 847.958C720.696 846.544 721.029 844.558 721.029 841.998C721.029 839.411 720.709 837.424 720.069 836.038C719.429 834.624 718.216 833.918 716.429 833.918C714.643 833.918 713.429 834.611 712.789 835.998C712.149 837.384 711.829 839.384 711.829 841.998C711.829 844.584 712.149 846.584 712.789 847.998C713.429 849.384 714.643 850.078 716.429 850.078ZM733.847 836.038C734.46 834.891 735.313 833.971 736.407 833.278C737.527 832.584 738.86 832.238 740.407 832.238V835.198C736.3 835.198 734.247 836.798 734.247 839.998H734.207V851.598H730.167V832.398H731.927L733.847 836.038ZM755.12 851.598L749.2 842.678L747.8 844.198V851.598H743.76V826.238L747.8 825.718V841.758L756.56 832.398H758.88L751.68 840.038L759.48 851.598H755.12ZM763.295 851.878C762.682 851.878 762.149 851.638 761.695 851.158C761.242 850.678 761.015 850.131 761.015 849.518C761.015 848.878 761.242 848.331 761.695 847.878C762.149 847.424 762.682 847.198 763.295 847.198C763.962 847.198 764.522 847.424 764.975 847.878C765.429 848.331 765.655 848.878 765.655 849.518C765.655 850.158 765.429 850.718 764.975 851.198C764.522 851.651 763.962 851.878 763.295 851.878Z" fill="#7E64CA"/>
<defs>
<linearGradient id="paint0_linear_56_41" x1="316.5" y1="619" x2="406" y2="746" gradientUnits="userSpaceOnUse">
<stop stop-color="white"/>
<stop offset="1" stop-color="#D9B7FE"/>
</linearGradient>
<linearGradient id="paint1_linear_56_41" x1="410.223" y1="734.074" x2="231.125" y2="341.134" gradientUnits="userSpaceOnUse">
<stop stop-color="#9967CE"/>
<stop offset="0.784431" stop-color="#452F8A"/>
</linearGradient>
<linearGradient id="paint2_linear_56_41" x1="683.71" y1="619" x2="594.21" y2="746" gradientUnits="userSpaceOnUse">
<stop stop-color="white"/>
<stop offset="1" stop-color="#D9B7FE"/>
</linearGradient>
<linearGradient id="paint3_linear_56_41" x1="589.987" y1="734.074" x2="769.085" y2="341.134" gradientUnits="userSpaceOnUse">
<stop stop-color="#9967CE"/>
<stop offset="0.784431" stop-color="#452F8A"/>
</linearGradient>
<linearGradient id="paint4_linear_56_41" x1="500.402" y1="126" x2="500.402" y2="269" gradientUnits="userSpaceOnUse">
<stop stop-color="#452F8A"/>
<stop offset="1" stop-color="#9967CE"/>
</linearGradient>
<linearGradient id="paint5_linear_56_41" x1="500.402" y1="126" x2="500.402" y2="269" gradientUnits="userSpaceOnUse">
<stop stop-color="#452F8A"/>
<stop offset="1" stop-color="#9967CE"/>
</linearGradient>
<linearGradient id="paint6_linear_56_41" x1="500.402" y1="126" x2="500.402" y2="269" gradientUnits="userSpaceOnUse">
<stop stop-color="#452F8A"/>
<stop offset="1" stop-color="#9967CE"/>
</linearGradient>
<linearGradient id="paint7_linear_56_41" x1="500.402" y1="126" x2="500.402" y2="269" gradientUnits="userSpaceOnUse">
<stop stop-color="#452F8A"/>
<stop offset="1" stop-color="#9967CE"/>
</linearGradient>
<linearGradient id="paint8_linear_56_41" x1="500.402" y1="126" x2="500.402" y2="269" gradientUnits="userSpaceOnUse">
<stop stop-color="#452F8A"/>
<stop offset="1" stop-color="#9967CE"/>
</linearGradient>
</defs>
</svg>
