<svg width="154" height="47" viewBox="0 0 154 47" fill="none" xmlns="http://www.w3.org/2000/svg">
<path d="M31.8392 37.0477C31.915 37.4009 31.4545 37.6069 31.2418 37.3149L24.7181 28.3628C24.5649 28.1525 24.6997 27.8556 24.9588 27.8326L29.4748 27.4321C29.6431 27.4172 29.796 27.53 29.8314 27.6951L31.8392 37.0477Z" fill="url(#paint0_linear_56_25)"/>
<path d="M24.6606 28.4032L35.5813 38.182C35.8501 38.4227 36.257 38.1259 36.1098 37.7964L29.9118 23.919C29.8715 23.8287 29.8732 23.7251 29.9165 23.6362L32.0466 19.2605C32.1404 19.0679 32.3885 19.0118 32.556 19.1454L39.9117 25.0128C40.1971 25.2404 40.5887 24.9116 40.414 24.5912L35.0668 14.785C35.0443 14.7437 35.0133 14.7075 34.9758 14.679L26.2938 8.06832C26.2356 8.02397 26.1644 7.99995 26.0912 7.99995L20.3351 7.99996C20.0683 7.99996 19.9088 8.29695 20.0563 8.51929L24.9166 15.8495C24.9551 15.9076 24.9745 15.9763 24.9721 16.046L24.5495 28.1424C24.546 28.2415 24.5867 28.3371 24.6606 28.4032Z" fill="url(#paint1_linear_56_25)"/>
<path d="M48.5593 37.0477C48.4835 37.4009 48.9439 37.6068 49.1567 37.3149L55.6804 28.3627C55.8336 28.1525 55.6987 27.8555 55.4396 27.8326L50.9236 27.4321C50.7554 27.4172 50.6024 27.5299 50.567 27.695L48.5593 37.0477Z" fill="url(#paint2_linear_56_25)"/>
<path d="M55.6043 28.4032L44.6836 38.182C44.4148 38.4227 44.0079 38.1259 44.1551 37.7964L50.3531 23.919C50.3934 23.8286 50.3917 23.7251 50.3484 23.6362L48.2183 19.2605C48.1245 19.0679 47.8764 19.0118 47.709 19.1454L40.3532 25.0128C40.0679 25.2404 39.6762 24.9116 39.8509 24.5911L45.1981 14.785C45.2206 14.7436 45.2516 14.7075 45.2891 14.679L53.9711 8.0683C54.0294 8.02396 54.1005 7.99994 54.1738 7.99994L59.9299 7.99994C60.1966 7.99994 60.3561 8.29693 60.2086 8.51928L55.3483 15.8495C55.3098 15.9076 55.2904 15.9763 55.2928 16.046L55.7155 28.1423C55.7189 28.2415 55.6782 28.337 55.6043 28.4032Z" fill="url(#paint3_linear_56_25)"/>
<path d="M80.7932 16.5336L76.6003 30.3615V30.4118H74.3155L70.1226 16.4079L69.7711 30.4118H68.2646L68.6915 15H72.0308L75.8471 27.8725L79.7387 15H83.2035L83.6555 30.4118H81.1196L80.7932 16.5336Z" fill="url(#paint4_linear_56_25)"/>
<path d="M98.4653 25.3081C98.4653 26.5987 98.1891 27.6546 97.6367 28.4759C97.1011 29.2805 96.4148 29.8587 95.5779 30.2107C94.7577 30.5459 93.8874 30.7135 92.9668 30.7135C91.3097 30.7135 89.9288 30.3029 88.824 29.4816C87.7361 28.6435 87.1921 27.2524 87.1921 25.3081V15H89.753V25.3081C89.753 26.7495 90.0543 27.8055 90.6569 28.4759C91.2762 29.1296 92.1047 29.4564 93.1425 29.4564C94.2138 29.4564 95.1176 29.1212 95.8541 28.4508C96.6073 27.7636 96.9839 26.716 96.9839 25.3081V15H98.4653V25.3081Z" fill="url(#paint5_linear_56_25)"/>
<path d="M110.188 29.1296V30.4118H102.254V15H104.815V29.1296H110.188Z" fill="url(#paint6_linear_56_25)"/>
<path d="M116.523 25.0818L116.498 25.1069V30.4118H113.937V25.0818L109.192 15H111.778L115.72 23.6739L119.762 15H121.268L116.523 25.0818Z" fill="url(#paint7_linear_56_25)"/>
<path d="M129.298 25.8109H123.171L121.715 30.4118H120.259L125.23 15H128.293L133.265 30.4118H130.779L129.298 25.8109ZM128.896 24.579L126.235 16.2068L123.573 24.579H128.896Z" fill="url(#paint8_linear_56_25)"/>
<defs>
<linearGradient id="paint0_linear_56_25" x1="28.8947" y1="27.3137" x2="27.7544" y2="38.1227" gradientUnits="userSpaceOnUse">
<stop stop-color="white"/>
<stop offset="1" stop-color="#D9B7FE"/>
</linearGradient>
<linearGradient id="paint1_linear_56_25" x1="24.9034" y1="9.26024" x2="28.8737" y2="36.4106" gradientUnits="userSpaceOnUse">
<stop offset="0.22" stop-color="#452F8A"/>
<stop offset="1" stop-color="#9967CE"/>
</linearGradient>
<linearGradient id="paint2_linear_56_25" x1="51.5037" y1="27.3137" x2="52.644" y2="38.1227" gradientUnits="userSpaceOnUse">
<stop stop-color="white"/>
<stop offset="1" stop-color="#D9B7FE"/>
</linearGradient>
<linearGradient id="paint3_linear_56_25" x1="44.8886" y1="37.873" x2="57.131" y2="8.60498" gradientUnits="userSpaceOnUse">
<stop stop-color="#9967CE"/>
<stop offset="0.78" stop-color="#452F8A"/>
</linearGradient>
<linearGradient id="paint4_linear_56_25" x1="100.744" y1="15" x2="100.744" y2="30.7442" gradientUnits="userSpaceOnUse">
<stop stop-color="#452F8A"/>
<stop offset="1" stop-color="#9967CE"/>
</linearGradient>
<linearGradient id="paint5_linear_56_25" x1="100.744" y1="15" x2="100.744" y2="30.7442" gradientUnits="userSpaceOnUse">
<stop stop-color="#452F8A"/>
<stop offset="1" stop-color="#9967CE"/>
</linearGradient>
<linearGradient id="paint6_linear_56_25" x1="100.744" y1="15" x2="100.744" y2="30.7442" gradientUnits="userSpaceOnUse">
<stop stop-color="#452F8A"/>
<stop offset="1" stop-color="#9967CE"/>
</linearGradient>
<linearGradient id="paint7_linear_56_25" x1="100.744" y1="15" x2="100.744" y2="30.7442" gradientUnits="userSpaceOnUse">
<stop stop-color="#452F8A"/>
<stop offset="1" stop-color="#9967CE"/>
</linearGradient>
<linearGradient id="paint8_linear_56_25" x1="100.744" y1="15" x2="100.744" y2="30.7442" gradientUnits="userSpaceOnUse">
<stop stop-color="#452F8A"/>
<stop offset="1" stop-color="#9967CE"/>
</linearGradient>
</defs>
</svg>
