<svg width="1000" height="937" viewBox="0 0 1000 937" fill="none" xmlns="http://www.w3.org/2000/svg">
<path d="M345.059 783.755C346.476 790.356 337.871 794.205 333.895 788.749L211.98 621.451C209.117 617.523 211.637 611.973 216.48 611.543L300.875 604.059C304.018 603.78 306.876 605.888 307.539 608.973L345.059 783.755Z" fill="url(#paint0_linear_17_369)"/>
<path d="M210.906 622.208L414.99 804.953C420.014 809.452 427.618 803.905 424.868 797.747L309.04 538.406C308.286 536.718 308.318 534.783 309.128 533.121L348.935 451.349C350.687 447.749 355.324 446.702 358.453 449.198L495.918 558.847C501.25 563.1 508.569 556.956 505.304 550.968L405.377 367.711C404.956 366.938 404.376 366.263 403.676 365.73L241.426 242.189C240.338 241.36 239.008 240.912 237.64 240.912L130.07 240.912C125.084 240.912 122.105 246.462 124.86 250.617L215.689 387.604C216.409 388.69 216.772 389.974 216.726 391.277L208.828 617.333C208.764 619.185 209.524 620.971 210.906 622.208Z" fill="url(#paint1_linear_17_369)"/>
<path d="M657.381 783.755C655.964 790.356 664.568 794.205 668.544 788.749L790.459 621.451C793.322 617.523 790.802 611.973 785.96 611.543L701.565 604.059C698.421 603.78 695.563 605.888 694.901 608.973L657.381 783.755Z" fill="url(#paint2_linear_17_369)"/>
<path d="M789.032 622.208L584.947 804.953C579.923 809.452 572.319 803.905 575.07 797.747L690.897 538.406C691.651 536.718 691.619 534.783 690.81 533.121L651.002 451.349C649.25 447.749 644.614 446.702 641.484 449.198L504.019 558.847C498.687 563.1 491.368 556.956 494.633 550.968L594.561 367.711C594.982 366.938 595.562 366.263 596.262 365.73L758.511 242.189C759.6 241.36 760.93 240.912 762.298 240.912L869.868 240.912C874.854 240.912 877.833 246.462 875.078 250.617L784.249 387.604C783.529 388.69 783.166 389.974 783.211 391.277L791.109 617.333C791.174 619.185 790.413 620.971 789.032 622.208Z" fill="url(#paint3_linear_17_369)"/>
<path d="M281.909 17.7191L234.233 174.737V175.308H208.254L160.577 16.2916L156.58 175.308H139.451L144.304 0.304359H182.274L225.668 146.474L269.919 0.304359H309.316L314.455 175.308H285.62L281.909 17.7191Z" fill="url(#paint4_linear_17_369)"/>
<path d="M482.852 117.354C482.852 132.009 479.711 143.999 473.431 153.325C467.34 162.461 459.537 169.027 450.021 173.024C440.695 176.83 430.798 178.734 420.33 178.734C401.488 178.734 385.786 174.071 373.225 164.745C360.854 155.229 354.668 139.432 354.668 117.354V0.304359H383.788V117.354C383.788 133.722 387.214 145.712 394.065 153.325C401.107 160.748 410.528 164.459 422.328 164.459C434.509 164.459 444.787 160.653 453.161 153.04C461.726 145.237 466.008 133.341 466.008 117.354V0.304359H482.852V117.354Z" fill="url(#paint5_linear_17_369)"/>
<path d="M616.143 160.748V175.308H525.929V0.304359H555.049V160.748H616.143Z" fill="url(#paint6_linear_17_369)"/>
<path d="M688.179 114.785L687.894 115.07V175.308H658.774V114.785L604.817 0.304359H634.222L679.044 98.7973L725.007 0.304359H742.136L688.179 114.785Z" fill="url(#paint7_linear_17_369)"/>
<path d="M833.436 123.064H763.777L747.219 175.308H730.661L787.187 0.304359H822.017L878.543 175.308H850.28L833.436 123.064ZM828.868 109.075L798.607 14.0077L768.345 109.075H828.868Z" fill="url(#paint8_linear_17_369)"/>
<path d="M189.426 907.112V909.662H171.573V879.008H188.526V881.558H176.674V892.71H187.476V895.36H176.674V907.112H189.426ZM207.415 885.059C212.549 885.059 215.116 887.609 215.116 892.71V909.662H210.065V893.11C210.065 891.31 209.749 889.993 209.115 889.159C208.482 888.292 207.482 887.859 206.115 887.859C204.081 887.859 202.081 888.626 200.114 890.159V909.662H195.063V885.659H197.263L199.264 888.159C200.464 887.226 201.781 886.476 203.214 885.909C204.681 885.342 206.081 885.059 207.415 885.059ZM235.154 885.059C237.787 885.059 239.721 885.725 240.955 887.059C242.222 888.392 242.855 890.276 242.855 892.71V909.662H237.804V893.11C237.804 891.343 237.487 890.026 236.854 889.159C236.221 888.292 235.22 887.859 233.854 887.859C231.787 887.859 229.786 888.626 227.853 890.159V909.662H222.802V877.958L227.853 877.307V887.559C228.919 886.792 230.086 886.192 231.353 885.759C232.62 885.292 233.887 885.059 235.154 885.059ZM255.391 910.263C253.358 910.263 251.741 909.712 250.541 908.612C249.374 907.479 248.79 905.945 248.79 904.012C248.79 901.945 249.524 900.328 250.991 899.161C252.491 897.961 254.758 897.094 257.792 896.56L263.343 895.66V893.21C263.343 889.443 261.909 887.559 259.042 887.559C257.342 887.559 256.108 888.042 255.341 889.009C254.574 889.976 254.141 891.46 254.041 893.46L249.84 893.01C250.04 890.376 250.841 888.392 252.241 887.059C253.641 885.725 255.941 885.059 259.142 885.059C262.242 885.059 264.559 885.759 266.093 887.159C267.627 888.526 268.393 890.61 268.393 893.41V909.662H265.193L263.643 906.162C262.609 907.495 261.376 908.512 259.942 909.212C258.508 909.913 256.992 910.263 255.391 910.263ZM257.192 907.612C258.325 907.612 259.442 907.279 260.542 906.612C261.676 905.945 262.609 905.162 263.343 904.262V897.711L258.442 898.661C256.775 899.027 255.508 899.611 254.641 900.411C253.808 901.211 253.391 902.295 253.391 903.662C253.391 904.862 253.724 905.829 254.391 906.562C255.091 907.262 256.025 907.612 257.192 907.612ZM288.434 885.059C293.568 885.059 296.135 887.609 296.135 892.71V909.662H291.084V893.11C291.084 891.31 290.767 889.993 290.134 889.159C289.5 888.292 288.5 887.859 287.133 887.859C285.1 887.859 283.099 888.626 281.132 890.159V909.662H276.082V885.659H278.282L280.282 888.159C281.482 887.226 282.799 886.476 284.233 885.909C285.7 885.342 287.1 885.059 288.434 885.059ZM307.071 897.661C307.071 900.994 307.438 903.512 308.171 905.212C308.938 906.912 310.355 907.762 312.422 907.762C314.122 907.762 315.339 907.245 316.072 906.212C316.839 905.178 317.256 903.612 317.322 901.511L321.623 901.661C321.423 904.462 320.623 906.595 319.223 908.062C317.822 909.529 315.522 910.263 312.322 910.263C308.388 910.263 305.687 909.129 304.22 906.862C302.753 904.562 302.02 901.495 302.02 897.661C302.02 893.793 302.753 890.726 304.22 888.459C305.687 886.192 308.388 885.059 312.322 885.059C315.522 885.059 317.806 885.759 319.173 887.159C320.573 888.526 321.373 890.543 321.573 893.21L317.322 893.76C317.256 891.66 316.839 890.109 316.072 889.109C315.339 888.076 314.122 887.559 312.422 887.559C310.355 887.559 308.938 888.409 308.171 890.109C307.438 891.776 307.071 894.293 307.071 897.661ZM331.293 897.961V898.061C331.293 901.595 331.71 904.095 332.544 905.562C333.41 907.029 334.877 907.762 336.944 907.762C340.345 907.762 342.128 906.012 342.295 902.511L346.446 902.711C346.212 905.045 345.362 906.895 343.895 908.262C342.428 909.596 340.061 910.263 336.794 910.263C333.027 910.263 330.327 909.229 328.693 907.162C327.059 905.062 326.243 901.895 326.243 897.661C326.243 893.86 327.009 890.81 328.543 888.509C330.11 886.209 332.844 885.059 336.744 885.059C340.511 885.059 343.129 886.209 344.595 888.509C346.062 890.776 346.796 893.76 346.796 897.461V897.961H331.293ZM336.644 887.559C334.877 887.559 333.594 888.209 332.794 889.509C331.993 890.81 331.51 892.793 331.343 895.46H341.895C341.795 892.86 341.345 890.893 340.545 889.559C339.778 888.226 338.478 887.559 336.644 887.559ZM376.166 908.812C374.399 909.779 372.698 910.263 371.065 910.263C369.398 910.263 368.148 909.963 367.314 909.362C366.514 908.729 366.014 907.979 365.814 907.112C365.614 906.245 365.514 905.178 365.514 903.912V888.209H361.613V885.659H365.514V881.758L370.615 879.858V885.659H375.716V888.209H370.615V904.512C370.615 905.612 370.748 906.379 371.015 906.812C371.315 907.212 371.798 907.412 372.465 907.412C373.398 907.412 374.415 907.112 375.515 906.512L376.166 908.812ZM392.405 885.059C395.039 885.059 396.972 885.725 398.206 887.059C399.473 888.392 400.106 890.276 400.106 892.71V909.662H395.055V893.11C395.055 891.343 394.739 890.026 394.105 889.159C393.472 888.292 392.471 887.859 391.105 887.859C389.038 887.859 387.037 888.626 385.104 890.159V909.662H380.053V877.958L385.104 877.307V887.559C386.171 886.792 387.337 886.192 388.604 885.759C389.871 885.292 391.138 885.059 392.405 885.059ZM411.042 897.961V898.061C411.042 901.595 411.459 904.095 412.292 905.562C413.159 907.029 414.626 907.762 416.693 907.762C420.094 907.762 421.877 906.012 422.044 902.511L426.194 902.711C425.961 905.045 425.111 906.895 423.644 908.262C422.177 909.596 419.81 910.263 416.543 910.263C412.776 910.263 410.075 909.229 408.442 907.162C406.808 905.062 405.991 901.895 405.991 897.661C405.991 893.86 406.758 890.81 408.292 888.509C409.859 886.209 412.592 885.059 416.493 885.059C420.26 885.059 422.877 886.209 424.344 888.509C425.811 890.776 426.545 893.76 426.545 897.461V897.961H411.042ZM416.393 887.559C414.626 887.559 413.342 888.209 412.542 889.509C411.742 890.81 411.259 892.793 411.092 895.46H421.644C421.544 892.86 421.094 890.893 420.294 889.559C419.527 888.226 418.227 887.559 416.393 887.559ZM463.165 885.659L454.814 909.662H449.263L441.062 885.659H446.113L453.114 907.112L460.265 885.659H463.165ZM472.564 910.263C470.53 910.263 468.913 909.712 467.713 908.612C466.546 907.479 465.963 905.945 465.963 904.012C465.963 901.945 466.696 900.328 468.163 899.161C469.663 897.961 471.93 897.094 474.964 896.56L480.515 895.66V893.21C480.515 889.443 479.082 887.559 476.214 887.559C474.514 887.559 473.281 888.042 472.514 889.009C471.747 889.976 471.314 891.46 471.214 893.46L467.013 893.01C467.213 890.376 468.013 888.392 469.413 887.059C470.814 885.725 473.114 885.059 476.314 885.059C479.415 885.059 481.732 885.759 483.265 887.159C484.799 888.526 485.566 890.61 485.566 893.41V909.662H482.365L480.815 906.162C479.782 907.495 478.548 908.512 477.115 909.212C475.681 909.913 474.164 910.263 472.564 910.263ZM474.364 907.612C475.498 907.612 476.614 907.279 477.715 906.612C478.848 905.945 479.782 905.162 480.515 904.262V897.711L475.614 898.661C473.947 899.027 472.681 899.611 471.814 900.411C470.98 901.211 470.564 902.295 470.564 903.662C470.564 904.862 470.897 905.829 471.564 906.562C472.264 907.262 473.197 907.612 474.364 907.612ZM498.305 909.662H493.254V877.958L498.305 877.307V909.662ZM526.142 885.659V909.662H522.841L521.441 906.662C519.207 909.062 516.59 910.263 513.59 910.263C510.989 910.263 509.072 909.596 507.839 908.262C506.605 906.895 505.989 904.978 505.989 902.511V885.659H511.039V902.011C511.039 905.745 512.506 907.612 515.44 907.612C517.607 907.612 519.491 906.562 521.091 904.462V885.659H526.142ZM537.527 897.961V898.061C537.527 901.595 537.943 904.095 538.777 905.562C539.644 907.029 541.111 907.762 543.178 907.762C546.578 907.762 548.362 906.012 548.528 902.511L552.679 902.711C552.446 905.045 551.596 906.895 550.129 908.262C548.662 909.596 546.295 910.263 543.028 910.263C539.26 910.263 536.56 909.229 534.926 907.162C533.293 905.062 532.476 901.895 532.476 897.661C532.476 893.86 533.243 890.81 534.776 888.509C536.343 886.209 539.077 885.059 542.978 885.059C546.745 885.059 549.362 886.209 550.829 888.509C552.296 890.776 553.029 893.76 553.029 897.461V897.961H537.527ZM542.878 887.559C541.111 887.559 539.827 888.209 539.027 889.509C538.227 890.81 537.743 892.793 537.577 895.46H548.128C548.028 892.86 547.578 890.893 546.778 889.559C546.011 888.226 544.711 887.559 542.878 887.559ZM580.149 910.263C576.115 910.263 573.298 909.112 571.697 906.812C570.13 904.478 569.347 901.428 569.347 897.661C569.347 893.86 570.13 890.81 571.697 888.509C573.298 886.209 576.115 885.059 580.149 885.059C584.149 885.059 586.95 886.225 588.55 888.559C590.15 890.86 590.95 893.893 590.95 897.661C590.95 906.062 587.35 910.263 580.149 910.263ZM580.149 907.762C582.349 907.762 583.849 906.879 584.649 905.112C585.483 903.345 585.899 900.861 585.899 897.661C585.899 894.427 585.499 891.943 584.699 890.209C583.899 888.442 582.382 887.559 580.149 887.559C577.915 887.559 576.398 888.426 575.598 890.159C574.798 891.893 574.398 894.393 574.398 897.661C574.398 900.894 574.798 903.395 575.598 905.162C576.398 906.895 577.915 907.762 580.149 907.762ZM605.524 876.657C606.591 876.657 607.608 876.824 608.575 877.157C609.542 877.457 610.525 877.908 611.525 878.508L609.825 882.158C609.325 881.391 608.725 880.775 608.025 880.308C607.325 879.841 606.608 879.608 605.874 879.608C604.941 879.608 604.208 879.925 603.674 880.558C603.174 881.158 602.924 881.975 602.924 883.008V885.659H607.975V888.209H602.924V909.662H597.873V888.209H593.973V885.659H597.873V884.359C597.873 881.825 598.523 879.908 599.824 878.608C601.157 877.307 603.057 876.657 605.524 876.657ZM642.148 885.659L629.897 919.814L625.796 919.214L630.447 910.613L620.045 885.659H625.096L632.747 904.612L639.248 885.659H642.148ZM655.649 910.263C651.615 910.263 648.798 909.112 647.197 906.812C645.63 904.478 644.847 901.428 644.847 897.661C644.847 893.86 645.63 890.81 647.197 888.509C648.798 886.209 651.615 885.059 655.649 885.059C659.649 885.059 662.45 886.225 664.05 888.559C665.65 890.86 666.45 893.893 666.45 897.661C666.45 906.062 662.85 910.263 655.649 910.263ZM655.649 907.762C657.849 907.762 659.349 906.879 660.149 905.112C660.983 903.345 661.4 900.861 661.4 897.661C661.4 894.427 660.999 891.943 660.199 890.209C659.399 888.442 657.882 887.559 655.649 887.559C653.415 887.559 651.898 888.426 651.098 890.159C650.298 891.893 649.898 894.393 649.898 897.661C649.898 900.894 650.298 903.395 651.098 905.162C651.898 906.895 653.415 907.762 655.649 907.762ZM692.476 885.659V909.662H689.176L687.776 906.662C685.542 909.062 682.925 910.263 679.924 910.263C677.324 910.263 675.407 909.596 674.173 908.262C672.94 906.895 672.323 904.978 672.323 902.511V885.659H677.374V902.011C677.374 905.745 678.841 907.612 681.775 907.612C683.942 907.612 685.825 906.562 687.425 904.462V885.659H692.476ZM705.211 890.209C705.978 888.776 707.045 887.626 708.412 886.759C709.812 885.892 711.479 885.459 713.413 885.459V889.159C708.279 889.159 705.712 891.16 705.712 895.16H705.661V909.662H700.611V885.659H702.811L705.211 890.209ZM756.829 885.659L750.578 909.662H745.027L741.177 892.61L736.876 909.662H731.275L725.974 885.659H731.075L735.176 905.762L740.027 885.659H742.977L742.927 885.759L743.077 885.659H744.727L748.928 905.862L753.829 885.659H756.829ZM770.413 910.263C766.379 910.263 763.562 909.112 761.961 906.812C760.394 904.478 759.611 901.428 759.611 897.661C759.611 893.86 760.394 890.81 761.961 888.509C763.562 886.209 766.379 885.059 770.413 885.059C774.413 885.059 777.214 886.225 778.814 888.559C780.414 890.86 781.214 893.893 781.214 897.661C781.214 906.062 777.614 910.263 770.413 910.263ZM770.413 907.762C772.613 907.762 774.113 906.879 774.913 905.112C775.747 903.345 776.164 900.861 776.164 897.661C776.164 894.427 775.763 891.943 774.963 890.209C774.163 888.442 772.646 887.559 770.413 887.559C768.179 887.559 766.662 888.426 765.862 890.159C765.062 891.893 764.662 894.393 764.662 897.661C764.662 900.894 765.062 903.395 765.862 905.162C766.662 906.895 768.179 907.762 770.413 907.762ZM792.188 890.209C792.955 888.776 794.021 887.626 795.388 886.759C796.789 885.892 798.456 885.459 800.389 885.459V889.159C795.255 889.159 792.688 891.16 792.688 895.16H792.638V909.662H787.587V885.659H789.787L792.188 890.209ZM818.784 909.662L811.383 898.511L809.633 900.411V909.662H804.582V877.958L809.633 877.307V897.361L820.585 885.659H823.485L814.484 895.21L824.235 909.662H818.784ZM829.005 910.013C828.238 910.013 827.571 909.712 827.004 909.112C826.438 908.512 826.154 907.829 826.154 907.062C826.154 906.262 826.438 905.579 827.004 905.012C827.571 904.445 828.238 904.162 829.005 904.162C829.838 904.162 830.538 904.445 831.105 905.012C831.672 905.579 831.955 906.262 831.955 907.062C831.955 907.862 831.672 908.562 831.105 909.162C830.538 909.729 829.838 910.013 829.005 910.013Z" fill="#7E64CA"/>
<defs>
<linearGradient id="paint0_linear_17_369" x1="290.033" y1="601.846" x2="268.723" y2="803.845" gradientUnits="userSpaceOnUse">
<stop stop-color="white"/>
<stop offset="1" stop-color="#D9B7FE"/>
</linearGradient>
<linearGradient id="paint1_linear_17_369" x1="425.001" y1="799.179" x2="191.839" y2="255.344" gradientUnits="userSpaceOnUse">
<stop stop-color="#9967CE"/>
<stop offset="0.784431" stop-color="#452F8A"/>
</linearGradient>
<linearGradient id="paint2_linear_17_369" x1="712.407" y1="601.846" x2="733.717" y2="803.845" gradientUnits="userSpaceOnUse">
<stop stop-color="white"/>
<stop offset="1" stop-color="#D9B7FE"/>
</linearGradient>
<linearGradient id="paint3_linear_17_369" x1="588.776" y1="799.179" x2="817.561" y2="252.219" gradientUnits="userSpaceOnUse">
<stop stop-color="#9967CE"/>
<stop offset="0.78" stop-color="#452F8A"/>
</linearGradient>
<linearGradient id="paint4_linear_17_369" x1="508.762" y1="0.304359" x2="508.762" y2="179.082" gradientUnits="userSpaceOnUse">
<stop stop-color="#452F8A"/>
<stop offset="1" stop-color="#9967CE"/>
</linearGradient>
<linearGradient id="paint5_linear_17_369" x1="508.762" y1="0.304359" x2="508.762" y2="179.082" gradientUnits="userSpaceOnUse">
<stop stop-color="#452F8A"/>
<stop offset="1" stop-color="#9967CE"/>
</linearGradient>
<linearGradient id="paint6_linear_17_369" x1="508.762" y1="0.304359" x2="508.762" y2="179.082" gradientUnits="userSpaceOnUse">
<stop stop-color="#452F8A"/>
<stop offset="1" stop-color="#9967CE"/>
</linearGradient>
<linearGradient id="paint7_linear_17_369" x1="508.762" y1="0.304359" x2="508.762" y2="179.082" gradientUnits="userSpaceOnUse">
<stop stop-color="#452F8A"/>
<stop offset="1" stop-color="#9967CE"/>
</linearGradient>
<linearGradient id="paint8_linear_17_369" x1="508.762" y1="0.304359" x2="508.762" y2="179.082" gradientUnits="userSpaceOnUse">
<stop stop-color="#452F8A"/>
<stop offset="1" stop-color="#9967CE"/>
</linearGradient>
</defs>
</svg>
