<svg width="154" height="47" viewBox="0 0 154 47" fill="none" xmlns="http://www.w3.org/2000/svg">
<path d="M32.8392 37.0477C32.915 37.4009 32.4545 37.6069 32.2418 37.3149L25.7181 28.3628C25.5649 28.1525 25.6997 27.8556 25.9588 27.8326L30.4748 27.4321C30.6431 27.4172 30.796 27.53 30.8314 27.6951L32.8392 37.0477Z" fill="url(#paint0_linear_56_25)"/>
<path d="M25.6606 28.4032L36.5813 38.182C36.8501 38.4227 37.257 38.1259 37.1098 37.7964L30.9118 23.919C30.8715 23.8287 30.8732 23.7251 30.9165 23.6362L33.0466 19.2605C33.1404 19.0679 33.3885 19.0118 33.556 19.1454L40.9117 25.0128C41.1971 25.2404 41.5887 24.9116 41.414 24.5912L36.0668 14.785C36.0443 14.7437 36.0133 14.7075 35.9758 14.679L27.2938 8.06832C27.2356 8.02397 27.1644 7.99995 27.0912 7.99995L21.3351 7.99996C21.0683 7.99996 20.9088 8.29695 21.0563 8.51929L25.9166 15.8495C25.9551 15.9076 25.9745 15.9763 25.9721 16.046L25.5495 28.1424C25.546 28.2415 25.5867 28.3371 25.6606 28.4032Z" fill="url(#paint1_linear_56_25)"/>
<path d="M49.5593 37.0477C49.4835 37.4009 49.9439 37.6068 50.1567 37.3149L56.6804 28.3627C56.8336 28.1525 56.6987 27.8555 56.4396 27.8325L51.9236 27.4321C51.7554 27.4171 51.6024 27.5299 51.567 27.695L49.5593 37.0477Z" fill="url(#paint2_linear_56_25)"/>
<path d="M56.6043 28.4032L45.6836 38.182C45.4148 38.4227 45.0079 38.1259 45.1551 37.7964L51.3531 23.919C51.3934 23.8286 51.3917 23.7251 51.3484 23.6361L49.2183 19.2605C49.1245 19.0679 48.8764 19.0118 48.709 19.1454L41.3532 25.0128C41.0679 25.2403 40.6762 24.9116 40.8509 24.5911L46.1981 14.785C46.2206 14.7436 46.2516 14.7075 46.2891 14.679L54.9711 8.06829C55.0294 8.02394 55.1005 7.99992 55.1738 7.99992L60.9299 7.99992C61.1966 7.99992 61.3561 8.29692 61.2086 8.51926L56.3483 15.8495C56.3098 15.9076 56.2904 15.9763 56.2928 16.046L56.7155 28.1423C56.7189 28.2415 56.6782 28.337 56.6043 28.4032Z" fill="url(#paint3_linear_56_25)"/>
<path d="M81.4009 13.1298L77.3487 26.4934V26.542H75.1407L71.0885 13.0083L70.7488 26.542H69.293L69.7055 11.6476H72.9326L76.6208 24.0879L80.3818 11.6476H83.7303L84.167 26.542H81.7163L81.4009 13.1298Z" fill="url(#paint4_linear_56_25)"/>
<path d="M98.4796 21.6096C98.4796 22.8569 98.2127 23.8774 97.6788 24.6711C97.1612 25.4486 96.498 26.0074 95.6892 26.3476C94.8965 26.6716 94.0554 26.8336 93.1657 26.8336C91.5642 26.8336 90.2297 26.4367 89.1621 25.643C88.1106 24.8331 87.5849 23.4886 87.5849 21.6096V11.6476H90.0598V21.6096C90.0598 23.0027 90.351 24.0231 90.9334 24.6711C91.5319 25.3028 92.3326 25.6187 93.3355 25.6187C94.3708 25.6187 95.2443 25.2947 95.9561 24.6468C96.684 23.9826 97.048 22.9703 97.048 21.6096V11.6476H98.4796V21.6096Z" fill="url(#paint5_linear_56_25)"/>
<path d="M109.808 25.3028V26.542H102.141V11.6476H104.616V25.3028H109.808Z" fill="url(#paint6_linear_56_25)"/>
<path d="M115.931 21.3909L115.907 21.4152V26.542H113.432V21.3909L108.846 11.6476H111.345L115.154 20.0303L119.061 11.6476H120.517L115.931 21.3909Z" fill="url(#paint7_linear_56_25)"/>
<path d="M128.277 22.0955H122.356L120.949 26.542H119.542L124.346 11.6476H127.306L132.111 26.542H129.708L128.277 22.0955ZM127.889 20.905L125.317 12.8139L122.744 20.905H127.889Z" fill="url(#paint8_linear_56_25)"/>
<path d="M71.868 32.5947V32.8336H70.1963V29.9629H71.7838V30.2018H70.6739V31.2461H71.6854V31.4943H70.6739V32.5947H71.868ZM73.5526 30.5296C74.0334 30.5296 74.2738 30.7684 74.2738 31.2461V32.8336H73.8008V31.2835C73.8008 31.1149 73.7711 30.9916 73.7118 30.9136C73.6525 30.8324 73.5588 30.7918 73.4308 30.7918C73.2404 30.7918 73.0531 30.8636 72.8689 31.0072V32.8336H72.3959V30.5858H72.602L72.7893 30.8199C72.9017 30.7325 73.025 30.6623 73.1592 30.6092C73.2966 30.5561 73.4277 30.5296 73.5526 30.5296ZM76.1501 30.5296C76.3968 30.5296 76.5778 30.592 76.6934 30.7169C76.812 30.8418 76.8713 31.0182 76.8713 31.2461V32.8336H76.3983V31.2835C76.3983 31.1181 76.3687 30.9947 76.3094 30.9136C76.25 30.8324 76.1564 30.7918 76.0284 30.7918C75.8348 30.7918 75.6475 30.8636 75.4664 31.0072V32.8336H74.9935V29.8646L75.4664 29.8037V30.7637C75.5663 30.6919 75.6756 30.6357 75.7942 30.5951C75.9129 30.5514 76.0315 30.5296 76.1501 30.5296ZM78.0452 32.8898C77.8548 32.8898 77.7034 32.8382 77.591 32.7352C77.4817 32.6291 77.4271 32.4855 77.4271 32.3044C77.4271 32.1108 77.4958 31.9594 77.6332 31.8502C77.7736 31.7378 77.9859 31.6566 78.27 31.6066L78.7898 31.5223V31.2929C78.7898 30.9401 78.6556 30.7637 78.3871 30.7637C78.2279 30.7637 78.1124 30.809 78.0406 30.8995C77.9688 30.9901 77.9282 31.129 77.9188 31.3163L77.5254 31.2742C77.5442 31.0275 77.6191 30.8418 77.7502 30.7169C77.8813 30.592 78.0968 30.5296 78.3965 30.5296C78.6868 30.5296 78.9038 30.5951 79.0474 30.7263C79.191 30.8543 79.2628 31.0494 79.2628 31.3116V32.8336H78.9631L78.8179 32.5058C78.7211 32.6306 78.6056 32.7259 78.4714 32.7914C78.3371 32.857 78.1951 32.8898 78.0452 32.8898ZM78.2138 32.6416C78.32 32.6416 78.4246 32.6103 78.5276 32.5479C78.6337 32.4855 78.7211 32.4121 78.7898 32.3278V31.7143L78.3309 31.8033C78.1748 31.8377 78.0562 31.8923 77.975 31.9672C77.897 32.0421 77.8579 32.1436 77.8579 32.2716C77.8579 32.384 77.8891 32.4745 77.9516 32.5432C78.0171 32.6088 78.1046 32.6416 78.2138 32.6416ZM81.1394 30.5296C81.6202 30.5296 81.8606 30.7684 81.8606 31.2461V32.8336H81.3876V31.2835C81.3876 31.1149 81.358 30.9916 81.2986 30.9136C81.2393 30.8324 81.1457 30.7918 81.0177 30.7918C80.8272 30.7918 80.6399 30.8636 80.4557 31.0072V32.8336H79.9828V30.5858H80.1888L80.3761 30.8199C80.4885 30.7325 80.6118 30.6623 80.7461 30.6092C80.8834 30.5561 81.0145 30.5296 81.1394 30.5296ZM82.8847 31.7097C82.8847 32.0219 82.919 32.2576 82.9877 32.4168C83.0595 32.576 83.1922 32.6556 83.3857 32.6556C83.545 32.6556 83.6589 32.6072 83.7276 32.5104C83.7994 32.4137 83.8384 32.2669 83.8447 32.0702L84.2474 32.0843C84.2287 32.3465 84.1537 32.5463 84.0226 32.6837C83.8915 32.8211 83.6761 32.8898 83.3764 32.8898C83.008 32.8898 82.7551 32.7836 82.6178 32.5713C82.4804 32.3559 82.4117 32.0687 82.4117 31.7097C82.4117 31.3475 82.4804 31.0603 82.6178 30.848C82.7551 30.6357 83.008 30.5296 83.3764 30.5296C83.6761 30.5296 83.8899 30.5951 84.0179 30.7263C84.1491 30.8543 84.224 31.0431 84.2427 31.2929L83.8447 31.3444C83.8384 31.1477 83.7994 31.0025 83.7276 30.9089C83.6589 30.8121 83.545 30.7637 83.3857 30.7637C83.1922 30.7637 83.0595 30.8433 82.9877 31.0025C82.919 31.1586 82.8847 31.3944 82.8847 31.7097ZM85.1529 31.7378V31.7471C85.1529 32.0781 85.192 32.3122 85.27 32.4496C85.3512 32.5869 85.4886 32.6556 85.6821 32.6556C86.0006 32.6556 86.1676 32.4917 86.1832 32.1639L86.5719 32.1826C86.55 32.4012 86.4704 32.5744 86.333 32.7024C86.1957 32.8273 85.974 32.8898 85.6681 32.8898C85.3153 32.8898 85.0624 32.793 84.9094 32.5994C84.7565 32.4027 84.68 32.1061 84.68 31.7097C84.68 31.3538 84.7518 31.0681 84.8954 30.8527C85.0421 30.6373 85.2981 30.5296 85.6634 30.5296C86.0162 30.5296 86.2612 30.6373 86.3986 30.8527C86.536 31.065 86.6046 31.3444 86.6046 31.6909V31.7378H85.1529ZM85.654 30.7637C85.4886 30.7637 85.3684 30.8246 85.2934 30.9464C85.2185 31.0681 85.1732 31.2539 85.1576 31.5036H86.1457C86.1364 31.2601 86.0942 31.0759 86.0193 30.951C85.9475 30.8262 85.8257 30.7637 85.654 30.7637ZM89.3549 32.7539C89.1895 32.8445 89.0302 32.8898 88.8773 32.8898C88.7212 32.8898 88.6041 32.8617 88.5261 32.8055C88.4511 32.7461 88.4043 32.6759 88.3856 32.5947C88.3668 32.5136 88.3575 32.4137 88.3575 32.295V30.8246H87.9922V30.5858H88.3575V30.2205L88.8351 30.0426V30.5858H89.3128V30.8246H88.8351V32.3512C88.8351 32.4542 88.8476 32.526 88.8726 32.5666C88.9007 32.6041 88.946 32.6228 89.0084 32.6228C89.0958 32.6228 89.191 32.5947 89.294 32.5385L89.3549 32.7539ZM90.8756 30.5296C91.1222 30.5296 91.3033 30.592 91.4188 30.7169C91.5375 30.8418 91.5968 31.0182 91.5968 31.2461V32.8336H91.1238V31.2835C91.1238 31.1181 91.0942 30.9947 91.0348 30.9136C90.9755 30.8324 90.8819 30.7918 90.7539 30.7918C90.5603 30.7918 90.373 30.8636 90.1919 31.0072V32.8336H89.7189V29.8646L90.1919 29.8037V30.7637C90.2918 30.6919 90.4011 30.6357 90.5197 30.5951C90.6384 30.5514 90.757 30.5296 90.8756 30.5296ZM92.6209 31.7378V31.7471C92.6209 32.0781 92.6599 32.3122 92.7379 32.4496C92.8191 32.5869 92.9565 32.6556 93.15 32.6556C93.4685 32.6556 93.6355 32.4917 93.6511 32.1639L94.0398 32.1826C94.0179 32.4012 93.9383 32.5744 93.801 32.7024C93.6636 32.8273 93.4419 32.8898 93.136 32.8898C92.7832 32.8898 92.5303 32.793 92.3774 32.5994C92.2244 32.4027 92.1479 32.1061 92.1479 31.7097C92.1479 31.3538 92.2197 31.0681 92.3633 30.8527C92.51 30.6373 92.766 30.5296 93.1313 30.5296C93.4841 30.5296 93.7292 30.6373 93.8665 30.8527C94.0039 31.065 94.0726 31.3444 94.0726 31.6909V31.7378H92.6209ZM93.1219 30.7637C92.9565 30.7637 92.8363 30.8246 92.7614 30.9464C92.6864 31.0681 92.6412 31.2539 92.6256 31.5036H93.6136C93.6043 31.2601 93.5621 31.0759 93.4872 30.951C93.4154 30.8262 93.2936 30.7637 93.1219 30.7637ZM97.5019 30.5858L96.7198 32.8336H96.2L95.432 30.5858H95.905L96.5606 32.5947L97.2303 30.5858H97.5019ZM98.382 32.8898C98.1915 32.8898 98.0401 32.8382 97.9277 32.7352C97.8184 32.6291 97.7638 32.4855 97.7638 32.3044C97.7638 32.1108 97.8325 31.9594 97.9699 31.8502C98.1103 31.7378 98.3226 31.6566 98.6067 31.6066L99.1265 31.5223V31.2929C99.1265 30.9401 98.9923 30.7637 98.7238 30.7637C98.5646 30.7637 98.4491 30.809 98.3773 30.8995C98.3055 30.9901 98.2649 31.129 98.2555 31.3163L97.8622 31.2742C97.8809 31.0275 97.9558 30.8418 98.0869 30.7169C98.218 30.592 98.4335 30.5296 98.7332 30.5296C99.0235 30.5296 99.2405 30.5951 99.3841 30.7263C99.5277 30.8543 99.5995 31.0494 99.5995 31.3116V32.8336H99.2998L99.1546 32.5058C99.0578 32.6306 98.9423 32.7259 98.8081 32.7914C98.6739 32.857 98.5318 32.8898 98.382 32.8898ZM98.5505 32.6416C98.6567 32.6416 98.7613 32.6103 98.8643 32.5479C98.9704 32.4855 99.0578 32.4121 99.1265 32.3278V31.7143L98.6676 31.8033C98.5115 31.8377 98.3929 31.8923 98.3117 31.9672C98.2337 32.0421 98.1946 32.1436 98.1946 32.2716C98.1946 32.384 98.2259 32.4745 98.2883 32.5432C98.3539 32.6088 98.4413 32.6416 98.5505 32.6416ZM100.792 32.8336H100.319V29.8646L100.792 29.8037V32.8336ZM103.399 30.5858V32.8336H103.09L102.959 32.5526C102.75 32.7774 102.505 32.8898 102.224 32.8898C101.98 32.8898 101.801 32.8273 101.685 32.7024C101.57 32.5744 101.512 32.3949 101.512 32.1639V30.5858H101.985V32.1171C101.985 32.4667 102.122 32.6416 102.397 32.6416C102.6 32.6416 102.776 32.5432 102.926 32.3465V30.5858H103.399ZM104.465 31.7378V31.7471C104.465 32.0781 104.504 32.3122 104.582 32.4496C104.664 32.5869 104.801 32.6556 104.994 32.6556C105.313 32.6556 105.48 32.4917 105.496 32.1639L105.884 32.1826C105.862 32.4012 105.783 32.5744 105.645 32.7024C105.508 32.8273 105.286 32.8898 104.98 32.8898C104.628 32.8898 104.375 32.793 104.222 32.5994C104.069 32.4027 103.992 32.1061 103.992 31.7097C103.992 31.3538 104.064 31.0681 104.208 30.8527C104.354 30.6373 104.61 30.5296 104.976 30.5296C105.328 30.5296 105.574 30.6373 105.711 30.8527C105.848 31.065 105.917 31.3444 105.917 31.6909V31.7378H104.465ZM104.966 30.7637C104.801 30.7637 104.681 30.8246 104.606 30.9464C104.531 31.0681 104.486 31.2539 104.47 31.5036H105.458C105.449 31.2601 105.407 31.0759 105.332 30.951C105.26 30.8262 105.138 30.7637 104.966 30.7637ZM108.457 32.8898C108.079 32.8898 107.815 32.782 107.665 32.5666C107.518 32.3481 107.445 32.0624 107.445 31.7097C107.445 31.3538 107.518 31.0681 107.665 30.8527C107.815 30.6373 108.079 30.5296 108.457 30.5296C108.831 30.5296 109.093 30.6388 109.243 30.8574C109.393 31.0728 109.468 31.3569 109.468 31.7097C109.468 32.4964 109.131 32.8898 108.457 32.8898ZM108.457 32.6556C108.663 32.6556 108.803 32.5729 108.878 32.4074C108.956 32.242 108.995 32.0094 108.995 31.7097C108.995 31.4068 108.958 31.1743 108.883 31.0119C108.808 30.8465 108.666 30.7637 108.457 30.7637C108.247 30.7637 108.105 30.8449 108.03 31.0072C107.955 31.1696 107.918 31.4037 107.918 31.7097C107.918 32.0125 107.955 32.2466 108.03 32.4121C108.105 32.5744 108.247 32.6556 108.457 32.6556ZM110.833 29.7429C110.933 29.7429 111.028 29.7585 111.118 29.7897C111.209 29.8178 111.301 29.8599 111.395 29.9161L111.236 30.258C111.189 30.1862 111.132 30.1284 111.067 30.0847C111.001 30.041 110.934 30.0191 110.866 30.0191C110.778 30.0191 110.709 30.0488 110.66 30.1081C110.613 30.1643 110.589 30.2408 110.589 30.3376V30.5858H111.062V30.8246H110.589V32.8336H110.116V30.8246H109.751V30.5858H110.116V30.464C110.116 30.2268 110.177 30.0472 110.299 29.9255C110.424 29.8037 110.602 29.7429 110.833 29.7429ZM114.262 30.5858L113.115 33.7842L112.731 33.728L113.167 32.9225L112.193 30.5858H112.666L113.382 32.3606L113.991 30.5858H114.262ZM115.527 32.8898C115.149 32.8898 114.885 32.782 114.735 32.5666C114.588 32.3481 114.515 32.0624 114.515 31.7097C114.515 31.3538 114.588 31.0681 114.735 30.8527C114.885 30.6373 115.149 30.5296 115.527 30.5296C115.901 30.5296 116.163 30.6388 116.313 30.8574C116.463 31.0728 116.538 31.3569 116.538 31.7097C116.538 32.4964 116.201 32.8898 115.527 32.8898ZM115.527 32.6556C115.733 32.6556 115.873 32.5729 115.948 32.4074C116.026 32.242 116.065 32.0094 116.065 31.7097C116.065 31.4068 116.028 31.1743 115.953 31.0119C115.878 30.8465 115.736 30.7637 115.527 30.7637C115.317 30.7637 115.175 30.8449 115.1 31.0072C115.026 31.1696 114.988 31.4037 114.988 31.7097C114.988 32.0125 115.026 32.2466 115.1 32.4121C115.175 32.5744 115.317 32.6556 115.527 32.6556ZM118.975 30.5858V32.8336H118.666L118.535 32.5526C118.326 32.7774 118.081 32.8898 117.8 32.8898C117.556 32.8898 117.377 32.8273 117.261 32.7024C117.146 32.5744 117.088 32.3949 117.088 32.1639V30.5858H117.561V32.1171C117.561 32.4667 117.698 32.6416 117.973 32.6416C118.176 32.6416 118.352 32.5432 118.502 32.3465V30.5858H118.975ZM120.168 31.0119C120.24 30.8777 120.339 30.77 120.467 30.6888C120.599 30.6076 120.755 30.567 120.936 30.567V30.9136C120.455 30.9136 120.215 31.1009 120.215 31.4755H120.21V32.8336H119.737V30.5858H119.943L120.168 31.0119ZM125.001 30.5858L124.416 32.8336H123.896L123.536 31.2367L123.133 32.8336H122.608L122.112 30.5858H122.59L122.974 32.4683L123.428 30.5858H123.704L123.7 30.5951L123.714 30.5858H123.868L124.262 32.4777L124.72 30.5858H125.001ZM126.273 32.8898C125.896 32.8898 125.632 32.782 125.482 32.5666C125.335 32.3481 125.262 32.0624 125.262 31.7097C125.262 31.3538 125.335 31.0681 125.482 30.8527C125.632 30.6373 125.896 30.5296 126.273 30.5296C126.648 30.5296 126.91 30.6388 127.06 30.8574C127.21 31.0728 127.285 31.3569 127.285 31.7097C127.285 32.4964 126.948 32.8898 126.273 32.8898ZM126.273 32.6556C126.479 32.6556 126.62 32.5729 126.695 32.4074C126.773 32.242 126.812 32.0094 126.812 31.7097C126.812 31.4068 126.774 31.1743 126.7 31.0119C126.625 30.8465 126.483 30.7637 126.273 30.7637C126.064 30.7637 125.922 30.8449 125.847 31.0072C125.772 31.1696 125.735 31.4037 125.735 31.7097C125.735 32.0125 125.772 32.2466 125.847 32.4121C125.922 32.5744 126.064 32.6556 126.273 32.6556ZM128.313 31.0119C128.384 30.8777 128.484 30.77 128.612 30.6888C128.743 30.6076 128.899 30.567 129.081 30.567V30.9136C128.6 30.9136 128.359 31.1009 128.359 31.4755H128.355V32.8336H127.882V30.5858H128.088L128.313 31.0119ZM130.803 32.8336L130.11 31.7893L129.946 31.9672V32.8336H129.473V29.8646L129.946 29.8037V31.6816L130.972 30.5858H131.243L130.4 31.4802L131.314 32.8336H130.803ZM131.76 32.8663C131.688 32.8663 131.626 32.8382 131.573 32.782C131.52 32.7259 131.493 32.6619 131.493 32.59C131.493 32.5151 131.52 32.4511 131.573 32.398C131.626 32.345 131.688 32.3184 131.76 32.3184C131.838 32.3184 131.904 32.345 131.957 32.398C132.01 32.4511 132.036 32.5151 132.036 32.59C132.036 32.665 132.01 32.7305 131.957 32.7867C131.904 32.8398 131.838 32.8663 131.76 32.8663Z" fill="#7E64CA"/>
<defs>
<linearGradient id="paint0_linear_56_25" x1="29.8947" y1="27.3137" x2="28.7544" y2="38.1227" gradientUnits="userSpaceOnUse">
<stop stop-color="white"/>
<stop offset="1" stop-color="#D9B7FE"/>
</linearGradient>
<linearGradient id="paint1_linear_56_25" x1="25.9034" y1="9.26024" x2="29.8737" y2="36.4106" gradientUnits="userSpaceOnUse">
<stop offset="0.22" stop-color="#452F8A"/>
<stop offset="1" stop-color="#9967CE"/>
</linearGradient>
<linearGradient id="paint2_linear_56_25" x1="52.5037" y1="27.3137" x2="53.644" y2="38.1227" gradientUnits="userSpaceOnUse">
<stop stop-color="white"/>
<stop offset="1" stop-color="#D9B7FE"/>
</linearGradient>
<linearGradient id="paint3_linear_56_25" x1="45.8886" y1="37.873" x2="58.131" y2="8.60496" gradientUnits="userSpaceOnUse">
<stop stop-color="#9967CE"/>
<stop offset="0.78" stop-color="#452F8A"/>
</linearGradient>
<linearGradient id="paint4_linear_56_25" x1="100.682" y1="11.6476" x2="100.682" y2="26.8632" gradientUnits="userSpaceOnUse">
<stop stop-color="#452F8A"/>
<stop offset="1" stop-color="#9967CE"/>
</linearGradient>
<linearGradient id="paint5_linear_56_25" x1="100.682" y1="11.6476" x2="100.682" y2="26.8632" gradientUnits="userSpaceOnUse">
<stop stop-color="#452F8A"/>
<stop offset="1" stop-color="#9967CE"/>
</linearGradient>
<linearGradient id="paint6_linear_56_25" x1="100.682" y1="11.6476" x2="100.682" y2="26.8632" gradientUnits="userSpaceOnUse">
<stop stop-color="#452F8A"/>
<stop offset="1" stop-color="#9967CE"/>
</linearGradient>
<linearGradient id="paint7_linear_56_25" x1="100.682" y1="11.6476" x2="100.682" y2="26.8632" gradientUnits="userSpaceOnUse">
<stop stop-color="#452F8A"/>
<stop offset="1" stop-color="#9967CE"/>
</linearGradient>
<linearGradient id="paint8_linear_56_25" x1="100.682" y1="11.6476" x2="100.682" y2="26.8632" gradientUnits="userSpaceOnUse">
<stop stop-color="#452F8A"/>
<stop offset="1" stop-color="#9967CE"/>
</linearGradient>
</defs>
</svg>
